HIERARCHY
ROOT Hips
{
	OFFSET 0.000000 0.000000 0.000000
	CHANNELS 6 Xposition Yposition Zposition Zrotation Yrotation Xrotation 
	JOINT LowerBack
	{
		OFFSET 0.000000 0.000000 0.000000
		CHANNELS 3 Zrotation Yrotation Xrotation
		JOINT Spine
		{
			OFFSET 0.028270 2.035590 -0.193380
			CHANNELS 3 Zrotation Yrotation Xrotation
			JOINT Spine1
			{
				OFFSET 0.056720 2.048850 -0.042750
				CHANNELS 3 Zrotation Yrotation Xrotation
				JOINT Neck
				{
					OFFSET 0.000000 0.000000 0.000000
					CHANNELS 3 Zrotation Yrotation Xrotation
					JOINT Neck1
					{
						OFFSET -0.054170 1.746240 0.172020
						CHANNELS 3 Zrotation Yrotation Xrotation
						JOINT Head
						{
							OFFSET 0.104070 1.761360 -0.123970
							CHANNELS 3 Zrotation Yrotation Xrotation
							End Site
							{
								OFFSET 0.000000 0.000000 0.000000
							}
						}
					}
				}
				JOINT LeftShoulder
				{
					OFFSET 0.000000 0.000000 0.000000
					CHANNELS 3 Zrotation Yrotation Xrotation
					JOINT LeftArm
					{
						OFFSET 3.362410 1.200890 -0.311210
						CHANNELS 3 Zrotation Yrotation Xrotation
						JOINT LeftForeArm
						{
							OFFSET 4.983000 -0.000000 -0.000000
							CHANNELS 3 Zrotation Yrotation Xrotation
							JOINT LeftHand
							{
								OFFSET 3.483560 -0.000000 -0.000000
								CHANNELS 3 Zrotation Yrotation Xrotation
								JOINT LeftFingerBase
								{
									OFFSET 0.000000 0.000000 0.000000
									CHANNELS 3 Zrotation Yrotation Xrotation
									JOINT LeftHandIndex1
									{
										OFFSET 0.715260 -0.000000 -0.000000
										CHANNELS 3 Zrotation Yrotation Xrotation
										End Site
										{
											OFFSET 0.000000 0.000000 0.000000
										}
									}
								}
								JOINT LThumb
								{
									OFFSET 0.000000 0.000000 0.000000
									CHANNELS 3 Zrotation Yrotation Xrotation
									End Site
									{
										OFFSET 0.000000 0.000000 0.000000
									}
								}
							}
						}
					}
				}
				JOINT RightShoulder
				{
					OFFSET 0.000000 0.000000 0.000000
					CHANNELS 3 Zrotation Yrotation Xrotation
					JOINT RightArm
					{
						OFFSET -3.136600 1.374050 -0.404650
						CHANNELS 3 Zrotation Yrotation Xrotation
						JOINT RightForeArm
						{
							OFFSET -5.241900 -0.000000 -0.000000
							CHANNELS 3 Zrotation Yrotation Xrotation
							JOINT RightHand
							{
								OFFSET -3.444170 -0.000000 -0.000000
								CHANNELS 3 Zrotation Yrotation Xrotation
								JOINT RightFingerBase
								{
									OFFSET 0.000000 0.000000 0.000000
									CHANNELS 3 Zrotation Yrotation Xrotation
									JOINT RightHandIndex1
									{
										OFFSET -0.622530 -0.000000 -0.000000
										CHANNELS 3 Zrotation Yrotation Xrotation
										End Site
										{
											OFFSET 0.000000 0.000000 0.000000
										}
									}
								}
								JOINT RThumb
								{
									OFFSET 0.000000 0.000000 0.000000
									CHANNELS 3 Zrotation Yrotation Xrotation
									End Site
									{
										OFFSET 0.000000 0.000000 0.000000
									}
								}
							}
						}
					}
				}
			}
		}
	}
}
}
MOTION
Frames: 17
Frame Time: 0.008333
23.501988 14.994438 2.473412 -136.671193 -78.928317 171.402470 -9.565348 1.419084 2.361293 -3.062602 1.837852 -2.747740 -6.230020 1.823768 -0.365739 9.995548 -11.278631 -10.598467 -0.873184 0.012770 -1.207296 0.000000 0.000000 0.000000 7.289795 18.203957 2.609598 -65.556881 32.602426 22.638496 -0.279903 -86.581758 0.013174 -7.834390 1.923346 -0.128877 0.115913 0.075085 -0.000000 0.000000 0.000000 0.000000 0.000000 0.000000 0.000000 3.023270 -3.385089 0.255871 73.274097 9.429183 35.076936 179.094758 76.369384 -179.976018 3.057889 1.650237 0.057534 -0.046059 -0.447210 -0.000000 0.000000 0.000000 0.000000 0.000000 0.000000 0.000000 
23.294637 14.979861 2.484533 -136.061078 -79.126262 170.815369 -9.814504 1.333863 2.583376 -3.138980 1.755985 -2.719594 -6.310229 1.742784 -0.477832 9.967719 -10.990817 -10.516741 -0.965593 0.004739 -1.199326 0.000000 0.000000 0.000000 7.123983 17.643602 2.724547 -65.876399 31.642098 21.696731 -0.336372 -85.523793 0.013216 -7.539747 1.889817 -0.121286 0.106254 0.079892 -0.000000 0.000000 0.000000 0.000000 0.000000 0.000000 0.000000 3.335568 -3.098655 0.242385 74.010195 9.250643 34.572064 179.168899 77.076555 -179.978355 2.726421 1.590682 0.050061 -0.041980 -0.447855 -0.000000 0.000000 0.000000 0.000000 0.000000 0.000000 0.000000 
23.092095 14.967532 2.495604 -135.420028 -79.375396 170.193867 -10.055448 1.237085 2.840144 -3.212518 1.661001 -2.684079 -6.384395 1.648849 -0.599796 9.905849 -10.675507 -10.394146 -1.062732 -0.004335 -1.180130 0.000000 0.000000 0.000000 6.956782 17.003099 2.832988 -66.170650 30.636249 20.740288 -0.393221 -84.454950 0.013274 -7.256372 1.856557 -0.114096 0.097025 0.084964 -0.000000 0.000000 0.000000 0.000000 0.000000 0.000000 0.000000 3.642954 -2.804846 0.222992 74.763210 9.072531 34.015428 179.253443 77.910065 -179.981593 2.272510 1.561276 0.041293 -0.035454 -0.448750 -0.000000 0.000000 0.000000 0.000000 0.000000 0.000000 0.000000 
22.894472 14.957174 2.506599 -134.742291 -79.663896 169.542439 -10.285597 1.130875 3.117339 -3.282749 1.554786 -2.642988 -6.452640 1.543764 -0.725754 9.812210 -10.338981 -10.234133 -1.163113 -0.014272 -1.150284 0.000000 0.000000 0.000000 6.784089 16.301624 2.932139 -66.418168 29.580534 19.793602 -0.450116 -83.386024 0.013365 -6.992998 1.825461 -0.107613 0.088299 0.090195 -0.000000 0.000000 0.000000 0.000000 0.000000 0.000000 0.000000 3.944984 -2.512065 0.198440 75.526673 8.902072 33.414247 179.344665 78.865740 -179.985530 1.729423 1.571887 0.031826 -0.027408 -0.449929 -0.000000 0.000000 0.000000 0.000000 0.000000 0.000000 0.000000 
22.701625 14.948637 2.517555 -134.024028 -79.976784 168.863085 -10.501363 1.018311 3.401650 -3.349105 1.440282 -2.598796 -6.515894 1.430335 -0.852451 9.689735 -9.985318 -10.039482 -1.265649 -0.024943 -1.110170 0.000000 0.000000 0.000000 6.596196 15.551506 3.019427 -66.597879 28.480517 18.869740 -0.506443 -82.334690 0.013471 -6.755887 1.800297 -0.101933 0.080108 0.095454 -0.000000 0.000000 0.000000 0.000000 0.000000 0.000000 0.000000 4.241379 -2.224322 0.170415 76.294634 8.741558 32.772361 179.438653 79.937444 -179.989882 1.136542 1.628666 0.021853 -0.018861 -0.451342 -0.000000 0.000000 0.000000 0.000000 0.000000 0.000000 0.000000 
22.513351 14.941821 2.528488 -133.261865 -80.296815 168.161438 -10.700466 0.903097 3.681048 -3.411243 1.321257 -2.552770 -6.574228 1.312291 -0.972793 9.543360 -9.621962 -9.817168 -1.368965 -0.036105 -1.061594 0.000000 0.000000 0.000000 6.392711 14.780180 3.093835 -66.696426 27.320591 17.989800 -0.562455 -81.302503 0.013607 -6.545654 1.785077 -0.097458 0.072341 0.100654 -0.000000 0.000000 0.000000 0.000000 0.000000 0.000000 0.000000 4.534172 -1.948884 0.139824 77.058929 8.598510 32.096644 179.531757 81.118641 -179.994375 0.531906 1.734150 0.011274 -0.010673 -0.452853 -0.000000 0.000000 0.000000 0.000000 0.000000 0.000000 0.000000 
22.329597 14.936765 2.539351 -132.460702 -80.606543 167.446390 -10.881779 0.789479 3.946352 -3.468967 1.202229 -2.504864 -6.627310 1.194255 -1.076985 9.379541 -9.261304 -9.578041 -1.471422 -0.047424 -1.007597 0.000000 0.000000 0.000000 6.181949 14.026993 3.155344 -66.707422 26.066150 17.182273 -0.619097 -80.277692 0.013753 -6.359903 1.785718 -0.094285 0.064795 0.105712 -0.000000 0.000000 0.000000 0.000000 0.000000 0.000000 0.000000 4.826269 -1.697204 0.106647 77.810745 8.485784 31.397302 179.620889 82.401588 -179.998751 -0.050716 1.886159 -0.000117 -0.003477 -0.454241 -0.000000 0.000000 0.000000 0.000000 0.000000 0.000000 0.000000 
22.150244 14.933689 2.550262 -131.609004 -80.884749 166.710797 -11.035946 0.681486 4.190543 -3.520904 1.087211 -2.461002 -6.678164 1.079673 -1.179341 9.197586 -8.884742 -9.313034 -1.574347 -0.059187 -0.945332 0.000000 0.000000 0.000000 5.927931 13.249518 3.202863 -66.618853 24.797804 16.391339 -0.673634 -79.316327 0.013896 -6.192064 1.802269 -0.092216 0.057537 0.110577 -0.000000 0.000000 0.000000 0.000000 0.000000 0.000000 0.000000 5.113800 -1.444041 0.076710 78.546181 8.375249 30.661112 179.703898 83.772373 179.997229 -0.580209 2.077542 -0.012018 0.002043 -0.455360 -0.000000 0.000000 0.000000 0.000000 0.000000 0.000000 0.000000 
21.975308 14.932574 2.561149 -130.734827 -81.121778 165.984002 -11.169471 0.582702 4.410784 -3.567946 0.980530 -2.415803 -6.723349 0.973512 -1.256119 9.008005 -8.523920 -9.047232 -1.674413 -0.070648 -0.882375 0.000000 0.000000 0.000000 5.675993 12.538600 3.239352 -66.446775 23.401371 15.688418 -0.729844 -78.350280 0.014019 -6.033403 1.843721 -0.091749 0.050106 0.115241 -0.000000 0.000000 0.000000 0.000000 0.000000 0.000000 0.000000 5.403000 -1.222168 0.045790 79.251872 8.304447 29.914601 179.779384 85.223991 179.993683 -1.043581 2.299615 -0.024330 0.005982 -0.455889 -0.000000 0.000000 0.000000 0.000000 0.000000 0.000000 0.000000 
21.804351 14.933674 2.572060 -129.849494 -81.304433 165.277087 -11.276907 0.495470 4.606878 -3.609294 0.884654 -2.373764 -6.764848 0.877743 -1.322862 8.809132 -8.158997 -8.771567 -1.772801 -0.082071 -0.816080 0.000000 0.000000 0.000000 5.400016 11.847480 3.265334 -66.194781 21.957101 15.009900 -0.785099 -77.426482 0.014093 -5.872546 1.906414 -0.092083 0.042571 0.119746 -0.000000 0.000000 0.000000 0.000000 0.000000 0.000000 0.000000 5.687922 -1.005050 0.019203 79.923305 8.244940 29.145756 179.846862 86.740099 179.990693 -1.430594 2.540196 -0.036751 0.008180 -0.455711 -0.000000 0.000000 0.000000 0.000000 0.000000 0.000000 0.000000 
21.637727 14.937099 2.583028 -128.998593 -81.429964 164.628995 -11.361620 0.421150 4.782446 -3.645507 0.801308 -2.334894 -6.802172 0.794059 -1.382017 8.602966 -7.788385 -8.488776 -1.868910 -0.093352 -0.747386 0.000000 0.000000 0.000000 5.107822 11.172790 3.282937 -65.879915 20.477831 14.337932 -0.838945 -76.547453 0.014098 -5.702706 1.991865 -0.093319 0.034922 0.124109 -0.000000 0.000000 0.000000 0.000000 0.000000 0.000000 0.000000 5.965382 -0.787356 -0.001466 80.553187 8.190948 28.356231 179.906319 88.305485 179.988249 -1.743838 2.787496 -0.048780 0.008846 -0.454713 -0.000000 0.000000 0.000000 0.000000 0.000000 0.000000 0.000000 
21.475400 14.942747 2.594011 -128.224511 -81.501253 164.080250 -11.430634 0.359536 4.942142 -3.677484 0.730781 -2.294785 -6.832341 0.723273 -1.421530 8.394918 -7.430757 -8.214994 -1.960551 -0.104020 -0.681300 0.000000 0.000000 0.000000 4.829506 10.567863 3.294409 -65.526443 18.899322 13.704628 -0.893573 -75.669284 0.013996 -5.511380 2.101487 -0.095055 0.026859 0.128443 -0.000000 0.000000 0.000000 0.000000 0.000000 0.000000 0.000000 6.235649 -0.587524 -0.018803 81.129963 8.163011 27.570057 179.958117 89.908657 179.986271 -1.996864 3.028701 -0.060214 0.008536 -0.452710 -0.000000 0.000000 0.000000 0.000000 0.000000 0.000000 0.000000 
21.317151 14.950658 2.605097 -127.547508 -81.521909 163.641354 -11.484027 0.309887 5.093623 -3.705155 0.672343 -2.254145 -6.855705 0.664514 -1.450671 8.184419 -7.077207 -7.946782 -2.047861 -0.114152 -0.616909 0.000000 0.000000 0.000000 4.563694 10.003509 3.300964 -65.153297 17.268205 13.070937 -0.947306 -74.812146 0.013779 -5.294298 2.231056 -0.096993 0.018554 0.132825 -0.000000 0.000000 0.000000 0.000000 0.000000 0.000000 0.000000 6.493324 -0.392595 -0.029923 81.647146 8.145281 26.786981 0.002705 88.467794 -0.015340 -2.204141 3.253485 -0.070751 0.007581 -0.449726 0.000000 0.000000 0.000000 0.000000 0.000000 0.000000 0.000000 
21.163046 14.960688 2.616378 -126.965009 -81.499110 163.303870 -11.521541 0.270528 5.244135 -3.728214 0.624305 -2.211845 -6.871606 0.616178 -1.472006 7.972404 -6.727788 -7.686028 -2.130269 -0.123675 -0.554887 0.000000 0.000000 0.000000 4.319229 9.474138 3.303687 -64.780748 15.598789 12.422749 -0.999430 -73.977781 0.013428 -5.049245 2.375879 -0.098433 0.010118 0.137362 -0.000000 0.000000 0.000000 0.000000 0.000000 0.000000 0.000000 6.734790 -0.200584 -0.033828 82.096506 8.132991 26.016571 0.040532 86.840122 -0.016700 -2.383549 3.453612 -0.080690 0.006401 -0.445799 0.000000 0.000000 0.000000 0.000000 0.000000 0.000000 0.000000 
21.012792 14.972653 2.627941 -126.447747 -81.441461 163.030632 -11.540909 0.239089 5.400802 -3.745788 0.584280 -2.164777 -6.879341 0.576251 -1.480839 7.762136 -6.395104 -7.441343 -2.206781 -0.132378 -0.497806 0.000000 0.000000 0.000000 4.110907 9.002965 3.302982 -64.426537 13.867151 11.774720 -1.050531 -73.150381 0.012942 -4.777685 2.534040 -0.099276 0.001586 0.142139 -0.000000 0.000000 0.000000 0.000000 0.000000 0.000000 0.000000 6.959956 -0.023615 -0.031644 82.468511 8.134859 25.281073 0.072166 85.220873 -0.017914 -2.553117 3.622866 -0.090128 0.005465 -0.440944 0.000000 0.000000 0.000000 0.000000 0.000000 0.000000 0.000000 
20.866508 14.986460 2.639970 -125.932246 -81.355613 162.748830 -11.532582 0.213585 5.570417 -3.755980 0.549853 -2.115821 -6.880738 0.541822 -1.493721 7.551619 -6.058298 -7.199500 -2.278505 -0.140583 -0.441726 0.000000 0.000000 0.000000 3.930255 8.522436 3.299355 -64.104366 12.166958 11.069134 -1.096815 -72.375982 0.012351 -4.487526 2.692248 -0.099023 -0.006548 0.147262 -0.000000 0.000000 0.000000 0.000000 0.000000 0.000000 0.000000 7.163405 0.162928 -0.018513 82.758416 8.119392 24.568749 0.097864 83.629901 -0.019051 -2.722391 3.760902 -0.099365 0.004828 -0.435407 0.000000 0.000000 0.000000 0.000000 0.000000 0.000000 0.000000 
20.723769 15.001856 2.652561 -125.344618 -81.249212 162.381016 -11.488269 0.191699 5.756969 -3.756893 0.518508 -2.064363 -6.876379 0.510390 -1.512117 7.343030 -5.718935 -6.960555 -2.345326 -0.148292 -0.386598 0.000000 0.000000 0.000000 3.783511 8.023817 3.292781 -63.823849 10.514598 10.303785 -1.137158 -71.662774 0.011695 -4.189512 2.842984 -0.097477 -0.014034 0.152809 -0.000000 0.000000 0.000000 0.000000 0.000000 0.000000 0.000000 7.345308 0.358133 0.006224 82.960024 8.079785 23.887727 0.118137 82.080968 -0.020143 -2.897530 3.868388 -0.108302 0.004632 -0.429322 0.000000 0.000000 0.000000 0.000000 0.000000 0.000000 0.000000 
